<svg fill="none" height="42" viewBox="0 0 568 42" width="568" xmlns="http://www.w3.org/2000/svg"><path clip-rule="evenodd" d="m389.065 13.08c-1.518 2.2716-2.328 4.9423-2.328 7.6743.003 3.6625 1.46 7.1739 4.05 9.7636 2.589 2.5898 6.101 4.0463 9.763 4.0499 2.732 0 5.403-.8101 7.675-2.328 2.271-1.5178 4.042-3.6752 5.087-6.1993 1.046-2.5241 1.319-5.3015.786-7.9811-.533-2.6795-1.848-5.1408-3.78-7.0727-1.932-1.93184-4.393-3.24745-7.073-3.78045-2.679-.53299-5.457-.25944-7.981.78607s-4.681 2.81598-6.199 5.08768zm-5.771 19.2048c-2.281-3.413-3.498-7.4257-3.498-11.5305.007-5.5022 2.196-10.77691 6.087-14.66753 3.89-3.89063 9.165-6.07955403 14.667-6.08677 4.105 0 8.118 1.21722 11.531 3.49773 3.413 2.28052 6.073 5.5219 7.644 9.31427 1.571 3.7923 1.982 7.9653 1.181 11.9913-.801 4.0259-2.778 7.724-5.68 10.6265-2.903 2.9026-6.601 4.8792-10.627 5.68-4.026.8009-8.199.3898-11.991-1.181s-7.034-4.231-9.314-7.644zm-8.625 2.3369v6.2727h-29.168v-5.4272l19.704-28.21332h-19.268v-6.27266h28.241v5.41358l-19.705 28.2269zm-279.0389-33.53084h-4.9091v39.99504h4.9091zm-74.7942 24.51824c0-9.2317 6.5318-15.94073 15.5317-15.94073 1.8809-.03247 3.7492.31287 5.4942 1.01553 1.745.7027 3.3312 1.7485 4.6648 3.0753 2.8537 3.1069 4.3719 7.211 4.2272 11.4272v1.5681h-24.9816c.068 2.7225 1.2047 5.3087 3.1645 7.1996s4.5851 2.9344 7.3082 2.9049c1.9205.0621 3.8186-.4277 5.4693-1.4114 1.6507-.9836 2.9848-2.4199 3.8442-4.1386l.2727-.45 4.2136 2.7273-.2454.4227c-1.3486 2.377-3.3286 4.3345-5.7208 5.6558-2.3923 1.3213-5.1036 1.9549-7.8336 1.8305-9.0681 0-15.409-6.6545-15.409-15.8862zm8.8705-9.088c-1.8627 1.4664-3.1727 3.5214-3.716 5.8289h19.7998c-.3266-2.2809-1.4788-4.3627-3.2382-5.8507-1.7594-1.4879-4.0036-2.2785-6.3071-2.2219-2.3706-.0137-4.6758.7773-6.5385 2.2437zm99.0476-5.5065c1.736-.8552 3.655-1.27511 5.59-1.22338h.041c7.022 0 11.4 4.82718 11.4 12.59988v18.6952h-4.909v-18.6679c0-4.8545-2.782-7.9909-7.091-7.9909-5.537 0-7.514 3.8182-7.514 7.3909v19.2679h-4.909v-18.6952c0-4.9363-2.727-7.9908-7.063-7.9908-1.889-.0342-3.717.6685-5.097 1.959-1.379 1.2906-2.202 3.0676-2.294 4.9545v19.7725h-4.909v-30.886h4.909v3c1.061-1.1231 2.35-2.0078 3.779-2.5955s2.967-.86502 4.512-.81358c1.831-.0898 3.651.31948 5.268 1.18408 1.616.8646 2.967 2.1521 3.909 3.725 1.138-1.5655 2.641-2.8305 4.378-3.6857zm-128.754 30.1266h4.90904v-26.3179h14.05896v-4.6226h-18.968zm149.999-15.532c0-9.2454 6.463-15.94076 15.463-15.94076h.069c1.878-.03297 3.745.3122 5.488 1.01496 1.743.7028 3.326 1.7488 4.657 3.0759 2.857 3.1055 4.38 7.2093 4.241 11.4271v1.5682h-24.995c.071 2.7236 1.211 5.3099 3.173 7.2004s4.588 2.9336 7.313 2.904c1.92.0621 3.818-.4277 5.469-1.4113 1.651-.9837 2.985-2.4199 3.844-4.1386l.259-.45 4.214 2.7272-.245.4228c-1.346 2.377-3.323 4.3348-5.713 5.6563-2.39 1.3214-5.1 1.9549-7.828 1.83-9.082 0-15.409-6.6409-15.409-15.8862zm8.868-9.091c-1.863 1.4668-3.173 3.5232-3.714 5.8319h19.8c-.329-2.2797-1.482-4.3598-3.241-5.8472s-4.001-2.2791-6.304-2.2254c-2.371-.0162-4.678.7739-6.541 2.2407zm-88.9125-6.72729c3.467-.01921 6.8359 1.15029 9.5453 3.31359v-2.8363h4.8545v30.8724h-4.8545v-2.8227c-2.7047 2.1703-6.0778 3.3364-9.5453 3.2999-2.0862.0355-4.158-.3509-6.0912-1.1359s-3.6878-1.9524-5.1587-3.4322c-2.8915-3.0507-4.4685-7.1155-4.3909-11.3181-.0716-4.2096 1.504-8.2807 4.3909-11.3453 1.4657-1.4886 3.2188-2.6636 5.1528-3.4535 1.9339-.79 4.0083-1.17852 6.0971-1.14189zm-4.3445 26.07749c1.3005.5537 2.6992.8396 4.1126.8404v.0682c6.2045 0 10.3772-4.3773 10.3772-10.9772s-4.1727-11.0317-10.3772-11.0317c-5.9862 0-10.4998 4.7454-10.4998 11.0317-.0532 1.4124.179 2.8211.6826 4.1417.5037 1.3207 1.2684 2.5262 2.2486 3.5446.9802 1.0183 2.1556 1.8286 3.456 2.3823zm187.042-35.24094v40.26774h-5.7l-20.891-27.327v27.327h-7.268v-40.26774h5.7l20.877 27.32694v-27.32694zm17.536 32.09964h18.9l3.068 8.1817h7.841l-16.009-40.28134h-8.741l-16.077 40.28134h7.909zm9.423-24.327 7.077 18.1089-14.1.0545zm42.708 17.6998h-8.564v14.8089h-7.241v-40.28134h17.632c7.882 0 14.182 5.72721 14.182 12.88624-.1 2.5968-.992 5.101-2.557 7.1756s-3.728 3.6202-6.198 4.4288l9.832 15.7907h-7.936zm-8.564-5.8908h10.391c1.806.0291 3.55-.6595 4.849-1.9148 1.298-1.2553 2.046-2.9747 2.078-4.7806-.032-1.806-.78-3.52535-2.078-4.78064-1.299-1.2553-3.043-1.94395-4.849-1.91476h-10.391zm219.548-7.8282c1.598-.0985 3.178.386 4.446 1.3637l-.041.0681c.629.4799 1.139 1.099 1.489 1.8087s.531 1.4908.529 2.2822c-.101 1.4931-.766 2.8919-1.86 3.9135-1.093 1.0217-2.534 1.5899-4.031 1.5899-1.496 0-2.937-.5682-4.03-1.5899-1.094-1.0216-1.759-2.4204-1.861-3.9135v-.1773h2.428v.1637c.055.8792.443 1.7044 1.085 2.3075.643.6031 1.491.9388 2.371.9388.881 0 1.729-.3357 2.372-.9388.642-.6031 1.03-1.4283 1.085-2.3075-.002-.4592-.107-.9119-.308-1.325-.201-.413-.491-.7757-.851-1.0614-.828-.6104-1.853-.8922-2.877-.7909h-4.568l1.363-8.56351h9.164v2.26361h-7.023l-.6 3.9681zm25.364 1.0659h-6.436l-2.359 2.2772h6.463c-.259 1.4245-.99 2.7206-2.074 3.6804-1.084.9599-2.459 1.5278-3.905 1.6128-1.445.0851-2.878-.3178-4.067-1.1438-1.189-.8261-2.067-2.0276-2.491-3.4119-.425-1.3843-.373-2.8711.148-4.2222.521-1.351 1.48-2.48801 2.725-3.22863 1.244-.74061 2.701-1.04197 4.137-.85574s2.768.84926 3.782 1.88277l.15.15 1.677-1.63635-.15-.14999c-.824-.82808-1.804-1.48554-2.882-1.93479-1.079-.44924-2.236-.68146-3.404-.68337-1.739.00809-3.436.53114-4.877 1.50309s-2.562 2.34921-3.221 3.95781c-.659 1.6087-.827 3.3765-.482 5.0803.346 1.7038 1.188 3.2671 2.421 4.4925 1.233 1.2255 2.801 2.058 4.507 2.3925 1.706.3346 3.473.1561 5.077-.5129 1.605-.669 2.975-1.7984 3.938-3.2457s1.476-3.1475 1.473-4.8859c0-.1922-.033-.3845-.068-.5839v-.0007l-.001-.0019c-.019-.1109-.039-.2241-.054-.3407zm-28.432-12.491215h23.373c3.616 0 7.085 1.436665 9.642 3.993955 2.557 2.55728 3.994 6.02566 3.994 9.64226 0 3.6165-1.437 7.085-3.994 9.6423-2.557 2.5572-6.026 3.9939-9.642 3.9939h-23.373c-1.791 0-3.564-.3527-5.218-1.038-1.655-.6853-3.158-1.6897-4.424-2.9559-1.266-1.2663-2.271-2.7695-2.956-4.424-.685-1.6544-1.038-3.4276-1.038-5.2183s.353-3.5639 1.038-5.21836c.685-1.65442 1.69-3.15766 2.956-4.4239s2.769-2.27068 4.424-2.95596c1.654-.68528 3.427-1.037995 5.218-1.037995zm0 25.799715h23.373c3.222 0 6.312-1.2801 8.591-3.5586 2.278-2.2786 3.558-5.3689 3.558-8.5913 0-3.2223-1.28-6.31268-3.558-8.59122-2.279-2.27854-5.369-3.55861-8.591-3.55861h-23.373c-3.222 0-6.313 1.28007-8.591 3.55861-2.279 2.27854-3.559 5.36892-3.559 8.59122 0 3.2224 1.28 6.3127 3.559 8.5913 2.278 2.2785 5.369 3.5586 8.591 3.5586zm-90.958-19.10544h18.191l-13.732 33.47694-.054.1363h7.104l14.032-34.2405.014-5.8363h-25.555zm28.199 13.56804c0-12.80436 6.041-20.767911 15.764-20.767911 9.722 0 15.763 7.895371 15.763 20.767911 0 12.8726-6.041 20.7816-15.763 20.7816-9.723 0-15.764-7.9772-15.764-20.7816zm6.75 0c0 9.1636 3.205 14.209 9.014 14.209v.0272c5.809 0 9.027-5.0863 9.027-14.2362s-3.218-14.19526-9.027-14.19526-9.014 5.03176-9.014 14.19526z" fill="#000" fill-rule="evenodd"/></svg>